<svg width="828" height="299" viewBox="0 0 828 299" fill="none" xmlns="http://www.w3.org/2000/svg">
    <rect x="205" y="114.066" width="499.253" height="77.1264" rx="20.5632" transform="rotate(-1.1553 205 114.066)" fill="#0D1117"/>
    <path d="M249.38 162.744L249.312 159.365L255.3 159.245L255.114 150.012L250.031 150.115L249.962 146.736L258.757 146.558L259.011 159.17L263.824 159.073L263.892 162.452L249.38 162.744ZM256.704 144.291C255.99 144.305 255.397 144.086 254.925 143.633C254.453 143.179 254.21 142.596 254.196 141.882C254.181 141.168 254.401 140.575 254.854 140.103C255.307 139.631 255.891 139.387 256.605 139.373C257.319 139.359 257.912 139.578 258.384 140.031C258.856 140.485 259.099 141.068 259.113 141.782C259.128 142.496 258.908 143.089 258.455 143.561C258.002 144.033 257.418 144.276 256.704 144.291ZM278.102 162.165L277.872 150.776C277.85 149.67 277.482 149.124 276.768 149.138C275.913 149.155 275.499 149.813 275.525 151.11L275.749 162.213L272.837 162.271L272.601 150.58C272.583 149.675 272.212 149.23 271.488 149.245C270.623 149.262 270.204 149.919 270.23 151.217L270.454 162.319L266.758 162.394L266.435 146.404L269.769 146.336L270.021 148.323L270.337 148.317C270.478 146.785 271.312 146.003 272.841 145.973C274.208 145.945 275.048 146.693 275.361 148.216L275.693 148.209C275.749 147.524 276.005 146.965 276.459 146.533C276.913 146.102 277.537 145.878 278.332 145.862C279.418 145.84 280.213 146.121 280.718 146.704C281.233 147.287 281.504 148.243 281.53 149.57L281.783 162.091L278.102 162.165ZM285.845 168.951L285.382 146.021L288.807 145.952L289.122 148.844L289.378 148.838C289.677 146.7 291.038 145.606 293.462 145.557C295.504 145.516 297.082 146.203 298.197 147.619C299.322 149.035 299.912 151.096 299.967 153.801C300.02 156.466 299.513 158.514 298.446 159.944C297.388 161.374 295.843 162.109 293.812 162.15C292.655 162.173 291.72 161.921 291.005 161.392C290.289 160.853 289.851 160.067 289.689 159.034L289.373 159.04L289.571 168.876L285.845 168.951ZM289.274 154.168C289.306 155.757 289.597 156.928 290.145 157.682C290.704 158.435 291.581 158.8 292.778 158.775C295.121 158.728 296.26 157.095 296.195 153.877C296.163 152.268 295.836 151.042 295.216 150.2C294.595 149.357 293.717 148.947 292.58 148.97C290.307 149.016 289.202 150.603 289.266 153.73L289.274 154.168ZM310.481 161.814C308.208 161.86 306.434 161.171 305.157 159.748C303.881 158.325 303.216 156.296 303.163 153.661C303.11 151.016 303.692 148.962 304.91 147.499C306.128 146.026 307.873 145.266 310.146 145.22C312.419 145.174 314.194 145.863 315.47 147.286C316.746 148.699 317.411 150.728 317.464 153.373C317.517 156.008 316.935 158.062 315.717 159.535C314.499 161.009 312.754 161.768 310.481 161.814ZM310.411 158.344C311.467 158.323 312.273 157.889 312.83 157.043C313.396 156.187 313.663 154.989 313.632 153.45C313.601 151.901 313.285 150.716 312.685 149.893C312.095 149.069 311.272 148.669 310.216 148.69C309.16 148.711 308.349 149.145 307.783 149.992C307.226 150.838 306.964 152.035 306.995 153.584C307.026 155.123 307.337 156.309 307.927 157.142C308.527 157.965 309.355 158.366 310.411 158.344ZM327.609 154.285L327.682 157.936L331.499 157.859L331.564 161.087L320.582 161.308L320.517 158.08L323.971 158.011L323.779 148.477L320.928 148.534L320.863 145.306L326.822 145.186L327.396 148.977L327.894 148.967C328 146.229 329.375 144.832 332.02 144.779C335.158 144.716 336.769 146.786 336.854 150.99L333.143 151.065C333.122 150.029 332.931 149.288 332.57 148.843C332.219 148.397 331.661 148.182 330.897 148.197C329.76 148.22 328.916 148.76 328.364 149.818C327.822 150.875 327.57 152.364 327.609 154.285ZM349.884 161.019C347.249 161.073 345.337 160.578 344.149 159.535C342.971 158.493 342.358 156.8 342.311 154.456L342.186 148.256L338.279 148.335L338.211 144.956L342.118 144.877L342.021 140.05L345.732 139.975L345.829 144.802L352.994 144.658L353.063 148.037L345.897 148.182L346.016 154.08C346.041 155.327 346.371 156.226 347.006 156.776C347.651 157.317 348.687 157.573 350.115 157.544C350.588 157.534 351.095 157.499 351.637 157.438C352.179 157.366 352.796 157.278 353.488 157.174L353.919 160.576C353.248 160.71 352.591 160.814 351.948 160.887C351.306 160.961 350.618 161.005 349.884 161.019Z" fill="#FF7B72"/>
    <path d="M370.303 163.324C366.924 163.392 364.28 162.243 362.371 159.877C360.462 157.501 359.463 154.116 359.375 149.721C359.287 145.386 360.15 142.014 361.962 139.603C363.775 137.182 366.371 135.937 369.75 135.869L370.444 135.855L370.511 139.219L369.938 139.231C367.696 139.276 365.984 140.211 364.803 142.035C363.633 143.85 363.08 146.386 363.146 149.645C363.213 152.963 363.868 155.526 365.112 157.332C366.365 159.128 368.114 160.003 370.356 159.958L370.929 159.946L370.997 163.31L370.303 163.324ZM630.222 158.082L630.154 154.718L630.712 154.707C632.965 154.662 634.676 153.717 635.846 151.872C637.016 150.017 637.568 147.431 637.501 144.112C637.435 140.854 636.781 138.341 635.538 136.576C634.295 134.8 632.547 133.935 630.294 133.98L629.736 133.991L629.668 130.627L630.347 130.614C633.736 130.545 636.385 131.684 638.294 134.03C640.202 136.366 641.2 139.701 641.287 144.036C641.376 148.43 640.514 151.853 638.702 154.305C636.89 156.746 634.29 158 630.901 158.069L630.222 158.082ZM651.413 161.217L652.41 150.783L656.513 150.701L654.913 161.146L651.413 161.217ZM654.192 143.368C653.488 143.382 652.885 143.148 652.382 142.665C651.879 142.172 651.62 141.574 651.606 140.87C651.592 140.166 651.826 139.562 652.309 139.06C652.792 138.557 653.386 138.298 654.089 138.284C654.793 138.27 655.397 138.504 655.9 138.987C656.402 139.47 656.661 140.063 656.675 140.767C656.689 141.471 656.455 142.08 655.972 142.592C655.489 143.095 654.896 143.354 654.192 143.368Z" fill="#E6EDF3"/>
    <path d="M377.653 148.386L377.006 138.741L381.26 138.655L381.002 148.319L377.653 148.386ZM384.351 148.251L383.704 138.606L387.958 138.52L387.7 148.184L384.351 148.251ZM400.992 159.989C400.288 160.003 399.685 159.769 399.182 159.286C398.679 158.793 398.421 158.199 398.407 157.506C398.392 156.791 398.627 156.183 399.11 155.68C399.592 155.178 400.186 154.919 400.89 154.905C401.594 154.891 402.197 155.125 402.7 155.608C403.203 156.091 403.461 156.689 403.476 157.403C403.49 158.097 403.255 158.701 402.773 159.213C402.29 159.716 401.696 159.975 400.992 159.989ZM411.513 162.342L422.823 134.95L426.594 134.874L415.269 162.266L411.513 162.342ZM430.402 159.094L429.97 137.673L444.452 137.381L444.52 140.73L433.674 140.948L433.788 146.62L441.919 146.456L441.986 149.805L433.855 149.969L433.97 155.672L444.817 155.453L444.884 158.802L430.402 159.094ZM447.615 158.747L453.263 150.725L447.292 142.756L451.667 142.668L455.076 147.851L458.274 142.535L462.649 142.447L456.926 150.53L462.971 158.437L458.597 158.525L455.112 153.359L451.989 158.658L447.615 158.747ZM476.476 158.316L476.193 154.79L475.846 154.797C475.74 156.026 475.256 156.957 474.394 157.588C473.541 158.219 472.401 158.549 470.973 158.577C469.283 158.612 467.963 158.231 467.011 157.435C466.069 156.629 465.583 155.467 465.552 153.948C465.517 152.198 466.113 150.843 467.341 149.883C468.57 148.922 470.325 148.419 472.608 148.373C473.825 148.348 474.883 148.423 475.782 148.596L475.775 148.279C475.756 147.344 475.376 146.667 474.633 146.249C473.89 145.822 472.789 145.603 471.33 145.592L467.345 145.566L467.579 142.196L470.959 142.173C473.755 142.157 475.844 142.689 477.224 143.768C478.603 144.836 479.315 146.427 479.357 148.539L479.483 154.754L481.903 155.037L481.964 158.054L476.476 158.316ZM475.842 151.598C475.297 151.508 474.778 151.463 474.285 151.463C473.802 151.453 473.294 151.453 472.761 151.464C470.388 151.511 469.215 152.234 469.243 153.632C469.268 154.889 470.096 155.501 471.725 155.469C472.66 155.45 473.431 155.268 474.038 154.924C474.655 154.569 475.114 154.133 475.415 153.613C475.716 153.084 475.861 152.543 475.85 151.99L475.842 151.598ZM495.329 157.784L495.1 146.395C495.077 145.289 494.709 144.743 493.995 144.757C493.14 144.775 492.726 145.432 492.752 146.729L492.976 157.832L490.064 157.891L489.829 146.2C489.81 145.294 489.439 144.849 488.715 144.864C487.85 144.881 487.431 145.539 487.457 146.836L487.681 157.939L483.985 158.013L483.663 142.023L486.997 141.956L487.248 143.943L487.565 143.936C487.705 142.404 488.539 141.623 490.068 141.592C491.436 141.564 492.276 142.312 492.588 143.835L492.92 143.828C492.977 143.143 493.232 142.584 493.686 142.153C494.14 141.721 494.764 141.497 495.559 141.481C496.645 141.459 497.44 141.74 497.945 142.323C498.46 142.907 498.731 143.862 498.758 145.189L499.01 157.71L495.329 157.784ZM503.072 164.57L502.61 141.641L506.034 141.572L506.349 144.463L506.605 144.458C506.904 142.319 508.266 141.225 510.689 141.176C512.731 141.135 514.309 141.822 515.424 143.239C516.55 144.655 517.139 146.715 517.194 149.421C517.248 152.086 516.741 154.133 515.673 155.563C514.615 156.993 513.071 157.728 511.039 157.769C509.883 157.793 508.947 157.54 508.232 157.011C507.517 156.472 507.078 155.686 506.917 154.653L506.6 154.66L506.798 164.495L503.072 164.57ZM506.502 149.787C506.534 151.376 506.824 152.547 507.372 153.301C507.931 154.054 508.808 154.419 510.005 154.395C512.348 154.348 513.488 152.715 513.423 149.497C513.39 147.888 513.064 146.662 512.443 145.819C511.822 144.976 510.944 144.566 509.807 144.589C507.535 144.635 506.43 146.222 506.493 149.35L506.502 149.787ZM530.092 157.385C528.141 157.425 526.722 156.92 525.836 155.871C524.959 154.823 524.497 153.127 524.45 150.783L524.191 137.946L519.59 138.039L519.522 134.66L527.834 134.492L528.158 150.558C528.18 151.664 528.378 152.465 528.75 152.96C529.132 153.456 529.957 153.691 531.224 153.665C532.089 153.648 533.181 153.434 534.501 153.025L534.997 156.652C534.166 156.891 533.365 157.068 532.593 157.184C531.82 157.3 530.987 157.367 530.092 157.385ZM547.123 157.042C544.367 157.097 542.226 156.426 540.699 155.028C539.181 153.62 538.395 151.574 538.341 148.888C538.289 146.274 538.881 144.229 540.119 142.756C541.367 141.282 543.148 140.521 545.461 140.475C547.693 140.43 549.432 141.059 550.675 142.362C551.929 143.664 552.581 145.578 552.632 148.102C552.647 148.826 552.63 149.516 552.583 150.171L542.174 150.381C542.822 152.581 544.57 153.652 547.416 153.595C548.12 153.581 548.808 153.532 549.48 153.448C550.162 153.354 550.854 153.234 551.556 153.089L552.017 156.521C551.025 156.722 550.117 156.856 549.294 156.923C548.48 156.989 547.756 157.029 547.123 157.042ZM541.954 147.699L549.059 147.556C549.035 146.329 548.714 145.399 548.098 144.768C547.481 144.126 546.635 143.816 545.559 143.838C544.513 143.859 543.68 144.203 543.059 144.87C542.439 145.536 542.071 146.479 541.954 147.699ZM563.913 156.703C563.209 156.717 562.605 156.483 562.103 156C561.6 155.507 561.341 154.914 561.327 154.22C561.313 153.506 561.547 152.898 562.03 152.395C562.513 151.892 563.106 151.634 563.81 151.619C564.514 151.605 565.118 151.84 565.62 152.322C566.123 152.805 566.382 153.404 566.396 154.118C566.41 154.812 566.176 155.415 565.693 155.928C565.21 156.431 564.617 156.689 563.913 156.703ZM575.819 163.405L575.598 159.923L578.611 159.636C580.097 159.496 581.164 159.062 581.814 158.334C582.473 157.617 582.789 156.534 582.759 155.086L582.524 143.41L576.686 143.527L576.618 140.148L586.182 139.955L586.476 154.528C586.533 157.374 585.916 159.459 584.625 160.783C583.344 162.116 581.262 162.913 578.38 163.172L575.819 163.405ZM583.978 137.691C583.274 137.705 582.681 137.486 582.199 137.033C581.727 136.579 581.484 135.996 581.47 135.282C581.455 134.568 581.675 133.975 582.128 133.503C582.591 133.03 583.175 132.787 583.879 132.773C584.593 132.759 585.186 132.978 585.658 133.431C586.13 133.885 586.373 134.468 586.387 135.182C586.402 135.896 586.182 136.489 585.729 136.961C585.276 137.433 584.692 137.676 583.978 137.691ZM598.88 155.998C596.487 156.046 594.613 155.933 593.259 155.659L593.626 152.15C594.806 152.287 595.819 152.388 596.666 152.451C597.512 152.514 598.227 152.54 598.81 152.528C600.279 152.499 601.337 152.357 601.986 152.102C602.645 151.847 602.969 151.459 602.959 150.936C602.952 150.594 602.851 150.339 602.656 150.172C602.462 149.995 602.157 149.855 601.742 149.753L597.116 148.563C595.831 148.237 594.876 147.773 594.25 147.172C593.624 146.561 593.3 145.692 593.277 144.566C593.242 142.826 593.915 141.535 595.297 140.692C596.688 139.849 598.867 139.398 601.834 139.338C602.548 139.324 603.263 139.334 603.978 139.37C604.693 139.406 605.439 139.466 606.215 139.551L605.891 142.938C605.014 142.876 604.244 142.836 603.58 142.819C602.925 142.802 602.337 142.799 601.814 142.809C600.144 142.843 598.94 142.983 598.2 143.229C597.461 143.476 597.096 143.855 597.106 144.368C597.113 144.71 597.229 144.959 597.454 145.116C597.678 145.272 598.023 145.406 598.488 145.517L602.371 146.48C603.877 146.832 604.994 147.348 605.722 148.028C606.46 148.707 606.841 149.645 606.865 150.842C606.9 152.541 606.266 153.812 604.965 154.653C603.674 155.494 601.646 155.942 598.88 155.998ZM612.983 143.641L612.336 133.995L616.59 133.909L616.332 143.573L612.983 143.641ZM619.681 143.505L619.034 133.86L623.288 133.774L623.03 143.438L619.681 143.505Z" fill="#A5D6FF"/>
    <rect x="54.9551" width="445.253" height="77.1264" rx="20.5632" transform="rotate(1.45262 54.9551 0)" fill="#0D1117"/>
    <path d="M106.803 50.8944L107.052 41.0901C107.076 40.1248 106.874 39.3751 106.445 38.841C106.025 38.3071 105.414 38.03 104.609 38.0096C102.367 37.9527 101.208 39.4024 101.133 42.3588L100.921 50.7452L97.1949 50.6507L97.6003 34.6623L100.949 34.7472L101.192 37.6512L101.615 37.6619C101.773 36.5893 102.17 35.7995 102.807 35.2924C103.444 34.7752 104.385 34.5325 105.632 34.5641C107.322 34.6069 108.616 35.1529 109.515 36.202C110.414 37.2512 110.84 38.7109 110.793 40.5813L110.529 50.9888L106.803 50.8944ZM123.267 51.6137C120.511 51.5439 118.403 50.776 116.941 49.3101C115.489 47.8344 114.797 45.7541 114.865 43.0693C114.931 40.4548 115.616 38.4396 116.92 37.0237C118.234 35.6081 120.047 34.9296 122.36 34.9883C124.592 35.0449 126.3 35.7523 127.483 37.1105C128.676 38.4689 129.241 40.4101 129.177 42.9341C129.158 43.6581 129.111 44.3462 129.034 44.9982L118.626 44.7343C119.174 46.9619 120.87 48.1117 123.716 48.1839C124.42 48.2017 125.109 48.184 125.785 48.1307C126.471 48.0676 127.167 47.9796 127.874 47.8667L128.179 51.3157C127.179 51.4715 126.266 51.564 125.44 51.5934C124.625 51.623 123.9 51.6298 123.267 51.6137ZM118.528 42.0453L125.633 42.2254C125.664 40.9986 125.386 40.0558 124.799 39.3969C124.212 38.728 123.381 38.3799 122.305 38.3526C121.259 38.3261 120.411 38.6316 119.761 39.2692C119.111 39.9067 118.7 40.8321 118.528 42.0453ZM141.721 51.7798L140.314 39.4281L140.133 39.4236L138.101 51.688L133.274 51.5656L132.322 35.5428L135.912 35.6338L136.404 48.4L136.675 48.4069L138.854 35.7084L141.78 35.7826L143.312 48.5752L143.583 48.582L145.038 35.8652L148.613 35.9559L146.397 51.8984L141.721 51.7798Z" fill="#86FF72"/>
    <path d="M248.655 54.7934C247.951 54.7755 247.359 54.514 246.879 54.0088C246.399 53.4935 246.168 52.8889 246.185 52.1951C246.204 51.4812 246.465 50.8841 246.97 50.4038C247.476 49.9236 248.08 49.6924 248.784 49.7103C249.488 49.7281 250.08 49.9897 250.56 50.4949C251.041 51.0001 251.272 51.6097 251.253 52.3236C251.236 53.0175 250.974 53.6095 250.469 54.0998C249.964 54.58 249.359 54.8112 248.655 54.7934ZM259.975 54.7786L260.519 33.3601L264.154 33.4523L263.695 51.5222L274.54 51.7973L274.456 55.1458L259.975 54.7786ZM278.076 55.2376L278.161 51.8589L284.149 52.0107L284.383 42.7797L279.3 42.6508L279.386 39.2721L288.18 39.4951L287.86 52.1048L292.672 52.2268L292.586 55.6055L278.076 55.2376ZM286.232 37.1364C285.518 37.1183 284.936 36.8721 284.485 36.3978C284.034 35.9236 283.818 35.3294 283.836 34.6155C283.854 33.9015 284.1 33.3191 284.574 32.8683C285.049 32.4175 285.643 32.2011 286.357 32.2192C287.071 32.2373 287.653 32.4835 288.104 32.9578C288.555 33.4321 288.771 34.0262 288.753 34.7402C288.735 35.4541 288.489 36.0365 288.014 36.4873C287.54 36.9382 286.946 37.1545 286.232 37.1364ZM300.648 56.1118C299.894 56.0927 299.15 56.0437 298.418 55.9647C297.695 55.8961 296.963 55.8071 296.221 55.6977L296.795 33.0726L300.52 33.167L300.279 42.6998L300.656 42.7093C300.931 40.5831 302.24 39.5498 304.583 39.6092C306.644 39.6614 308.222 40.3303 309.317 41.6159C310.411 42.9014 310.929 44.7005 310.87 47.0133C310.795 49.9797 309.867 52.2604 308.086 53.8554C306.315 55.4405 303.835 56.1927 300.648 56.1118ZM300.175 46.8025L300.025 52.685C300.246 52.7007 300.472 52.7114 300.704 52.7173C300.925 52.7229 301.146 52.7285 301.367 52.7341C303.147 52.7793 304.533 52.2962 305.525 51.285C306.526 50.2639 307.051 48.8082 307.099 46.9177C307.13 45.6909 306.873 44.7385 306.327 44.0606C305.791 43.3728 305.005 43.0158 303.969 42.9896C301.505 42.9271 300.241 44.1981 300.175 46.8025ZM321.056 56.6294C320.352 56.6115 319.76 56.35 319.28 55.8448C318.8 55.3295 318.568 54.7249 318.586 54.0311C318.604 53.3171 318.866 52.72 319.371 52.2398C319.876 51.7596 320.481 51.5284 321.185 51.5462C321.889 51.5641 322.481 51.8256 322.961 52.3308C323.441 52.8361 323.672 53.4456 323.654 54.1596C323.636 54.8534 323.375 55.4455 322.869 55.9358C322.364 56.416 321.76 56.6472 321.056 56.6294ZM416.948 61.7778C413.569 61.6921 410.98 60.424 409.181 57.9736C407.382 55.5131 406.538 52.0856 406.649 47.6913C406.759 43.3573 407.774 40.0274 409.695 37.7014C411.615 35.3654 414.265 34.2403 417.644 34.3259L418.338 34.3435L418.252 37.7071L417.679 37.6926C415.437 37.6357 413.684 38.4919 412.422 40.261C411.17 42.0203 410.503 44.5289 410.42 47.7869C410.336 51.1053 410.874 53.6948 412.034 55.5556C413.205 57.4065 414.911 58.3604 417.154 58.4172L417.727 58.4318L417.642 61.7954L416.948 61.7778ZM423.434 61.9423L423.519 58.5787L424.077 58.5928C426.329 58.6499 428.082 57.7838 429.335 55.9943C430.588 54.1948 431.257 51.6358 431.341 48.3175C431.423 45.0594 430.884 42.5202 429.723 40.6997C428.562 38.8691 426.855 37.9253 424.603 37.8682L424.044 37.854L424.13 34.4904L424.809 34.5076C428.197 34.5935 430.792 35.8517 432.591 38.2821C434.392 40.7024 435.237 44.0795 435.127 48.4135C435.015 52.8078 433.999 56.188 432.077 58.5542C430.156 60.9103 427.501 62.0454 424.112 61.9595L423.434 61.9423ZM444.46 66.0375L445.931 55.6605L450.033 55.7645L447.96 66.1262L444.46 66.0375ZM448.048 48.3336C447.345 48.3158 446.753 48.0542 446.272 47.549C445.792 47.0337 445.561 46.4242 445.579 45.7203C445.597 45.0164 445.858 44.4243 446.364 43.9441C446.869 43.4639 447.473 43.2327 448.177 43.2505C448.881 43.2684 449.473 43.5299 449.954 44.0351C450.434 44.5403 450.665 45.1449 450.647 45.8488C450.629 46.5527 450.368 47.1498 449.862 47.6401C449.357 48.1203 448.752 48.3515 448.048 48.3336Z" fill="#E6EDF3"/>
    <path d="M169.173 52.476L169.716 31.0575L177.228 31.248C179.5 31.3056 181.241 31.9132 182.449 33.0708C183.657 34.2284 184.235 35.8429 184.183 37.9144C184.106 40.9512 182.927 42.9891 180.647 44.028L184.588 52.8669L180.29 52.7579L177.053 44.7066C177.002 44.7053 176.947 44.7039 176.887 44.7024L173.01 44.6041L172.808 52.5682L169.173 52.476ZM173.095 41.2556L176.972 41.3539C178.007 41.3801 178.819 41.1089 179.407 40.5402C179.995 39.9715 180.302 39.1643 180.329 38.1185C180.357 37.0124 180.092 36.1554 179.534 35.5476C178.976 34.9398 178.179 34.6228 177.143 34.5965L173.266 34.4982L173.095 41.2556ZM194.355 53.4164C192.082 53.3588 190.341 52.5902 189.131 51.1105C187.92 49.6309 187.349 47.5738 187.416 44.9392C187.483 42.2946 188.158 40.2691 189.441 38.8628C190.725 37.4464 192.503 36.767 194.776 36.8246C197.048 36.8823 198.789 37.6509 200 39.1305C201.21 40.6001 201.782 42.6572 201.715 45.3018C201.648 47.9364 200.973 49.9619 199.689 51.3783C198.405 52.7947 196.627 53.474 194.355 53.4164ZM194.443 49.9472C195.499 49.974 196.324 49.5773 196.918 48.7573C197.523 47.9274 197.845 46.7432 197.884 45.2047C197.923 43.6561 197.661 42.4571 197.099 41.6077C196.547 40.7586 195.743 40.3206 194.688 40.2938C193.632 40.267 192.802 40.6636 192.197 41.4834C191.603 42.3035 191.286 43.4878 191.247 45.0364C191.208 46.5749 191.464 47.7737 192.016 48.6329C192.578 49.4824 193.387 49.9204 194.443 49.9472ZM212.455 53.8754C210.182 53.8178 208.441 53.0491 207.231 51.5695C206.021 50.0899 205.449 48.0328 205.516 45.3982C205.583 42.7536 206.258 40.7281 207.541 39.3218C208.825 37.9054 210.603 37.226 212.876 37.2836C215.148 37.3412 216.89 38.1099 218.1 39.5895C219.31 41.0591 219.882 43.1162 219.815 45.7608C219.748 48.3954 219.073 50.4209 217.789 51.8373C216.506 53.2537 214.728 53.933 212.455 53.8754ZM212.543 50.4062C213.599 50.433 214.424 50.0363 215.018 49.2163C215.623 48.3864 215.945 47.2022 215.984 45.6637C216.023 44.1151 215.762 42.9161 215.199 42.0667C214.647 41.2175 213.844 40.7796 212.788 40.7528C211.732 40.726 210.902 41.1226 210.297 41.9424C209.703 42.7625 209.386 43.9468 209.347 45.4954C209.308 47.0339 209.564 48.2327 210.116 49.0919C210.678 49.9413 211.487 50.3794 212.543 50.4062ZM233.753 54.4155C231.118 54.3487 229.231 53.7675 228.092 52.6721C226.962 51.5768 226.427 49.8577 226.487 47.5148L226.644 41.3155L222.737 41.2164L222.823 37.8377L226.73 37.9368L226.852 33.1101L230.563 33.2042L230.44 38.0309L237.605 38.2126L237.519 41.5913L230.355 41.4096L230.205 47.3072C230.173 48.5541 230.462 49.467 231.071 50.0459C231.691 50.6151 232.714 50.9177 234.142 50.9539C234.615 50.9659 235.123 50.9537 235.668 50.9172C236.212 50.8706 236.833 50.8109 237.529 50.738L237.804 54.156C237.128 54.2596 236.467 54.3334 235.821 54.3774C235.176 54.4214 234.487 54.4341 233.753 54.4155Z" fill="#FFA657"/>
    <path d="M342.105 56.8613L342.357 46.9062C342.381 45.971 342.178 45.2414 341.749 44.7173C341.329 44.1935 340.717 43.9214 339.913 43.901C337.67 43.8442 336.512 45.2688 336.439 48.1749L336.222 56.7121L332.497 56.6176L333.07 33.9925L336.796 34.0869L336.554 43.6197L336.916 43.6288C337.074 42.5562 337.472 41.7663 338.108 41.2593C338.745 40.7421 339.687 40.4994 340.934 40.531C342.623 40.5738 343.918 41.1198 344.817 42.1689C345.716 43.2181 346.142 44.6778 346.094 46.5482L345.83 56.9557L342.105 56.8613ZM360.454 57.6284C357.819 57.5616 355.932 56.9805 354.793 55.885C353.663 54.7898 353.128 53.0707 353.188 50.7277L353.345 44.5284L349.438 44.4294L349.524 41.0507L353.431 41.1497L353.553 36.323L357.264 36.4171L357.141 41.2438L364.306 41.4255L364.22 44.8042L357.055 44.6225L356.906 50.5202C356.874 51.767 357.163 52.68 357.772 53.2589C358.392 53.828 359.415 54.1307 360.843 54.1669C361.316 54.1789 361.824 54.1666 362.369 54.1301C362.913 54.0835 363.534 54.0238 364.23 53.9509L364.505 57.3689C363.828 57.4725 363.167 57.5463 362.522 57.5903C361.877 57.6343 361.188 57.647 360.454 57.6284ZM379.195 57.8018L379.484 46.4138C379.512 45.3077 379.169 44.7456 378.455 44.7275C377.6 44.7058 377.156 45.3436 377.123 46.6407L376.842 57.7421L373.931 57.6683L374.227 45.9787C374.25 45.0736 373.9 44.612 373.176 44.5936C372.311 44.5717 371.862 45.2093 371.829 46.5065L371.548 57.6079L367.852 57.5142L368.258 41.5257L371.591 41.6103L371.752 43.6066L372.069 43.6147C372.278 42.0905 373.147 41.3479 374.676 41.3866C376.043 41.4213 376.849 42.2064 377.091 43.742L377.423 43.7504C377.511 43.0685 377.791 42.5221 378.265 42.1115C378.738 41.7009 379.372 41.5057 380.166 41.5258C381.252 41.5534 382.034 41.87 382.512 42.4758C382.999 43.0819 383.226 44.0485 383.193 45.3759L382.875 57.8951L379.195 57.8018ZM395.839 58.5258C393.889 58.4763 392.494 57.9076 391.657 56.8198C390.829 55.7322 390.445 54.017 390.504 51.674L390.83 38.838L386.229 38.7213L386.315 35.3427L394.626 35.5534L394.219 51.6173C394.19 52.7234 394.351 53.5324 394.7 54.0444C395.06 54.5566 395.873 54.8288 397.14 54.8609C398.005 54.8828 399.106 54.7196 400.443 54.3711L400.773 58.0169C399.932 58.217 399.124 58.3575 398.347 58.4384C397.57 58.5193 396.734 58.5485 395.839 58.5258Z" fill="#72AAFF"/>
    <rect y="221.771" width="825.253" height="77.1264" rx="20.5632" transform="rotate(-1.72011 0 221.771)" fill="#0D1117"/>
    <path d="M54.7252 269.864L54.408 266.342L54.0612 266.352C53.9673 267.583 53.4922 268.518 52.6359 269.157C51.7896 269.797 50.6527 270.138 49.2249 270.181C47.5358 270.231 46.2115 269.863 45.252 269.077C44.3022 268.28 43.8046 267.123 43.759 265.605C43.7064 263.855 44.2895 262.494 45.5081 261.522C46.7268 260.549 48.4773 260.029 50.7596 259.96C51.9762 259.924 53.0348 259.988 53.9353 260.152L53.9258 259.835C53.8978 258.9 53.5102 258.227 52.7633 257.817C52.016 257.397 50.9129 257.188 49.4538 257.192L45.4691 257.206L45.6697 253.834L49.0493 253.777C51.8457 253.734 53.9391 254.244 55.3296 255.31C56.7199 256.365 57.4467 257.948 57.5101 260.06L57.6967 266.273L60.1197 266.532L60.2103 269.549L54.7252 269.864ZM54.0255 263.153C53.4795 263.069 52.9601 263.029 52.4671 263.034C51.9839 263.028 51.4758 263.033 50.943 263.049C48.5701 263.121 47.4047 263.855 47.4467 265.253C47.4844 266.509 48.3177 267.113 49.9465 267.064C50.8815 267.036 51.6507 266.847 52.2541 266.497C52.8672 266.136 53.3219 265.695 53.6182 265.173C53.9142 264.641 54.0539 264.098 54.0372 263.545L54.0255 263.153ZM71.4008 269.213L69.3119 256.958L69.1309 256.963L67.7812 269.321L62.9551 269.466L61.1177 253.521L64.7071 253.413L65.9042 266.132L66.1757 266.124L67.648 253.325L70.5738 253.237L72.8115 265.925L73.083 265.917L73.8314 253.139L77.4057 253.032L76.076 269.072L71.4008 269.213ZM90.9207 268.777L90.6036 265.255L90.2567 265.265C90.1629 266.496 89.6878 267.431 88.8315 268.07C87.9852 268.71 86.8482 269.051 85.4205 269.094C83.7314 269.144 82.4071 268.777 81.4476 267.99C80.4978 267.194 80.0001 266.036 79.9545 264.518C79.902 262.768 80.4851 261.407 81.7037 260.435C82.9224 259.462 84.6729 258.942 86.9552 258.873C88.1718 258.837 89.2304 258.901 90.1309 259.065L90.1214 258.748C90.0933 257.813 89.7058 257.14 88.9589 256.73C88.2116 256.31 87.1085 256.101 85.6494 256.105L81.6647 256.119L81.8653 252.747L85.2449 252.69C88.0412 252.647 90.1347 253.158 91.5252 254.223C92.9155 255.278 93.6423 256.861 93.7057 258.973L93.8923 265.186L96.3153 265.445L96.4059 268.462L90.9207 268.777ZM90.2211 262.066C89.6751 261.982 89.1556 261.942 88.6627 261.947C88.1795 261.941 87.6714 261.946 87.1385 261.962C84.7657 262.034 83.6003 262.768 83.6423 264.166C83.68 265.422 84.5133 266.026 86.1421 265.977C87.0771 265.949 87.8463 265.76 88.4497 265.41C89.0628 265.049 89.5175 264.608 89.8138 264.086C90.1097 263.554 90.2494 263.011 90.2328 262.458L90.2211 262.066ZM99.1507 268.379L99.0493 265.001L105.037 264.821L104.759 255.591L99.677 255.744L99.5755 252.366L108.368 252.102L108.747 264.71L113.558 264.565L113.659 267.944L99.1507 268.379ZM106.293 249.855C105.579 249.876 104.984 249.662 104.508 249.214C104.031 248.765 103.782 248.184 103.761 247.47C103.739 246.756 103.953 246.161 104.402 245.685C104.85 245.208 105.431 244.959 106.145 244.938C106.859 244.917 107.454 245.13 107.931 245.579C108.407 246.027 108.656 246.609 108.677 247.322C108.699 248.036 108.485 248.631 108.037 249.108C107.588 249.584 107.007 249.833 106.293 249.855ZM127.242 267.838C124.607 267.917 122.691 267.441 121.493 266.41C120.304 265.379 119.675 263.692 119.605 261.35L119.419 255.151L115.513 255.268L115.411 251.89L119.317 251.773L119.172 246.947L122.882 246.835L123.027 251.662L130.191 251.446L130.292 254.825L123.129 255.04L123.306 260.937C123.343 262.183 123.682 263.079 124.322 263.623C124.972 264.157 126.011 264.403 127.439 264.36C127.912 264.346 128.419 264.305 128.96 264.239C129.501 264.162 130.117 264.068 130.808 263.957L131.272 267.354C130.602 267.495 129.947 267.605 129.305 267.685C128.663 267.765 127.975 267.816 127.242 267.838Z" fill="#FF7B72"/>
    <path d="M162.472 266.78C155.715 266.983 152.227 263.404 152.006 256.044C151.901 252.556 152.669 249.83 154.311 247.869C155.953 245.898 158.332 244.865 161.449 244.772C162.886 244.728 164.16 244.922 165.27 245.351C166.38 245.781 167.219 246.415 167.788 247.253L165.635 249.959C165.164 249.36 164.572 248.904 163.858 248.594C163.154 248.283 162.395 248.14 161.581 248.164C159.761 248.219 158.323 248.911 157.266 250.241C156.218 251.56 155.73 253.407 155.802 255.779C155.958 260.978 158.318 263.508 162.883 263.371C164.341 263.327 165.769 262.982 167.169 262.337L167.961 265.588C166.232 266.325 164.402 266.722 162.472 266.78ZM178.338 266.303C176.065 266.371 174.284 265.7 172.994 264.29C171.704 262.88 171.019 260.857 170.94 258.223C170.86 255.579 171.423 253.519 172.626 252.044C173.829 250.559 175.567 249.782 177.839 249.714C180.112 249.645 181.893 250.316 183.183 251.727C184.473 253.127 185.158 255.149 185.237 257.794C185.316 260.428 184.754 262.488 183.551 263.973C182.348 265.458 180.61 266.235 178.338 266.303ZM178.233 262.834C179.289 262.803 180.091 262.361 180.639 261.509C181.197 260.647 181.453 259.447 181.406 257.909C181.36 256.36 181.033 255.178 180.424 254.361C179.826 253.543 178.999 253.151 177.944 253.182C176.888 253.214 176.081 253.656 175.523 254.508C174.975 255.36 174.724 256.56 174.771 258.108C174.817 259.646 175.139 260.829 175.738 261.657C176.346 262.474 177.178 262.866 178.233 262.834ZM195.39 258.606L195.5 262.256L199.316 262.141L199.412 265.368L188.433 265.698L188.336 262.471L191.79 262.367L191.504 252.835L188.653 252.921L188.556 249.694L194.514 249.515L195.125 253.3L195.623 253.285C195.702 250.546 197.063 249.136 199.708 249.057C202.845 248.963 204.476 251.017 204.602 255.22L200.892 255.331C200.861 254.295 200.663 253.557 200.297 253.115C199.942 252.673 199.382 252.463 198.618 252.486C197.482 252.52 196.643 253.069 196.101 254.131C195.57 255.194 195.333 256.685 195.39 258.606ZM215.845 265.177C213.09 265.26 210.942 264.61 209.402 263.227C207.87 261.834 207.064 259.795 206.984 257.11C206.905 254.496 207.478 252.446 208.701 250.96C209.934 249.474 211.707 248.696 214.02 248.627C216.252 248.56 217.996 249.172 219.253 250.462C220.519 251.753 221.19 253.66 221.266 256.183C221.288 256.907 221.278 257.597 221.238 258.252L210.831 258.565C211.501 260.759 213.259 261.813 216.104 261.727C216.808 261.706 217.495 261.65 218.167 261.56C218.848 261.459 219.539 261.332 220.239 261.181L220.734 264.607C219.744 264.818 218.838 264.961 218.015 265.036C217.202 265.111 216.479 265.158 215.845 265.177ZM210.585 255.885L217.688 255.672C217.651 254.445 217.322 253.519 216.699 252.894C216.076 252.259 215.227 251.957 214.151 251.989C213.105 252.021 212.276 252.373 211.662 253.045C211.048 253.718 210.689 254.664 210.585 255.885Z" fill="#FFA657"/>
    <path d="M232.631 264.673C231.927 264.694 231.322 264.466 230.814 263.988C230.306 263.5 230.042 262.909 230.021 262.215C230 261.501 230.228 260.891 230.706 260.383C231.184 259.876 231.775 259.611 232.478 259.59C233.182 259.569 233.788 259.798 234.295 260.275C234.803 260.753 235.067 261.349 235.089 262.063C235.109 262.757 234.881 263.362 234.403 263.88C233.926 264.387 233.335 264.652 232.631 264.673ZM401.052 262.332C397.674 262.434 395.019 261.311 393.086 258.964C391.154 256.606 390.122 253.231 389.99 248.837C389.86 244.504 390.689 241.123 392.478 238.694C394.266 236.255 396.85 234.985 400.228 234.884L400.922 234.863L401.023 238.226L400.449 238.243C398.207 238.311 396.505 239.262 395.343 241.099C394.19 242.925 393.662 245.466 393.76 248.724C393.86 252.042 394.54 254.598 395.802 256.391C397.073 258.175 398.83 259.033 401.072 258.965L401.645 258.948L401.746 262.311L401.052 262.332ZM751.395 251.811L751.294 248.448L751.852 248.431C754.104 248.363 755.806 247.402 756.958 245.546C758.11 243.679 758.636 241.087 758.536 237.769C758.438 234.512 757.759 232.006 756.499 230.253C755.238 228.489 753.482 227.641 751.23 227.709L750.672 227.726L750.571 224.363L751.25 224.342C754.638 224.241 757.298 225.353 759.229 227.68C761.161 229.997 762.192 233.322 762.322 237.656C762.454 242.05 761.626 245.481 759.838 247.95C758.05 250.409 755.462 251.689 752.074 251.791L751.395 251.811ZM772.616 254.736L773.51 244.294L777.612 244.171L776.115 254.631L772.616 254.736ZM775.219 236.861C774.515 236.882 773.91 236.654 773.402 236.176C772.895 235.688 772.63 235.092 772.609 234.388C772.588 233.684 772.816 233.079 773.294 232.571C773.772 232.064 774.363 231.8 775.067 231.778C775.77 231.757 776.376 231.986 776.883 232.464C777.391 232.941 777.655 233.532 777.676 234.236C777.697 234.94 777.469 235.551 776.992 236.068C776.514 236.575 775.923 236.84 775.219 236.861Z" fill="#E6EDF3"/>
    <path d="M249.492 264.166C247.099 264.238 245.225 264.144 243.868 263.882L244.2 260.37C245.382 260.496 246.396 260.586 247.243 260.641C248.09 260.696 248.805 260.715 249.388 260.698C250.856 260.654 251.913 260.501 252.559 260.24C253.216 259.979 253.536 259.587 253.52 259.064C253.51 258.722 253.407 258.469 253.211 258.304C253.014 258.128 252.708 257.992 252.293 257.893L247.654 256.75C246.367 256.436 245.407 255.982 244.775 255.387C244.143 254.782 243.81 253.916 243.777 252.79C243.724 251.051 244.385 249.753 245.758 248.897C247.141 248.04 249.316 247.567 252.282 247.478C252.996 247.457 253.71 247.46 254.426 247.489C255.141 247.518 255.887 247.571 256.664 247.648L256.374 251.038C255.497 250.984 254.726 250.952 254.061 250.942C253.407 250.931 252.818 250.934 252.295 250.949C250.626 251 249.423 251.151 248.686 251.405C247.949 251.659 247.588 252.042 247.604 252.555C247.614 252.896 247.732 253.144 247.958 253.299C248.184 253.453 248.53 253.583 248.996 253.69L252.888 254.615C254.398 254.952 255.52 255.457 256.255 256.129C257 256.801 257.39 257.735 257.426 258.932C257.477 260.631 256.856 261.907 255.563 262.761C254.281 263.615 252.257 264.083 249.492 264.166ZM272.024 263.49C269.39 263.569 267.473 263.093 266.275 262.062C265.087 261.031 264.457 259.344 264.387 257.002L264.201 250.803L260.295 250.921L260.193 247.542L264.1 247.425L263.955 242.599L267.665 242.488L267.81 247.314L274.973 247.098L275.075 250.477L267.911 250.692L268.088 256.589C268.126 257.835 268.464 258.731 269.105 259.275C269.755 259.809 270.794 260.055 272.221 260.012C272.694 259.998 273.201 259.957 273.742 259.891C274.283 259.814 274.899 259.72 275.591 259.609L276.055 263.006C275.385 263.147 274.729 263.258 274.087 263.337C273.446 263.417 272.758 263.468 272.024 263.49ZM289.996 262.799L289.679 259.276L289.332 259.287C289.239 260.517 288.764 261.452 287.907 262.092C287.061 262.731 285.924 263.072 284.496 263.115C282.807 263.166 281.483 262.798 280.523 262.012C279.574 261.215 279.076 260.058 279.03 258.539C278.978 256.79 279.561 255.429 280.779 254.457C281.998 253.484 283.749 252.964 286.031 252.895C287.247 252.858 288.306 252.922 289.207 253.086L289.197 252.77C289.169 251.835 288.782 251.162 288.035 250.752C287.287 250.331 286.184 250.123 284.725 250.127L280.74 250.141L280.941 246.768L284.321 246.712C287.117 246.668 289.21 247.179 290.601 248.244C291.991 249.3 292.718 250.883 292.781 252.994L292.968 259.208L295.391 259.467L295.482 262.483L289.996 262.799ZM289.297 256.088C288.751 256.003 288.231 255.964 287.738 255.968C287.255 255.963 286.747 255.968 286.214 255.984C283.841 256.055 282.676 256.79 282.718 258.187C282.756 259.444 283.589 260.048 285.218 259.999C286.153 259.971 286.922 259.782 287.525 259.432C288.139 259.071 288.593 258.63 288.889 258.108C289.185 257.575 289.325 257.033 289.309 256.48L289.297 256.088ZM303.977 255.345L304.087 258.995L307.902 258.88L307.999 262.107L297.02 262.437L296.923 259.21L300.377 259.106L300.09 249.575L297.24 249.66L297.143 246.433L303.1 246.254L303.712 250.039L304.21 250.024C304.289 247.285 305.65 245.875 308.294 245.796C311.431 245.702 313.063 247.756 313.189 251.959L309.479 252.07C309.448 251.035 309.25 250.296 308.884 249.854C308.529 249.412 307.969 249.202 307.205 249.225C306.069 249.259 305.23 249.808 304.688 250.871C304.156 251.933 303.919 253.425 303.977 255.345ZM326.317 261.859C323.683 261.938 321.767 261.463 320.568 260.432C319.38 259.401 318.751 257.714 318.68 255.371L318.494 249.173L314.588 249.29L314.487 245.912L318.393 245.795L318.248 240.968L321.958 240.857L322.103 245.683L329.267 245.468L329.368 248.846L322.204 249.061L322.381 254.958C322.419 256.205 322.758 257.101 323.398 257.645C324.048 258.179 325.087 258.424 326.515 258.381C326.987 258.367 327.494 258.327 328.036 258.26C328.577 258.184 329.193 258.09 329.884 257.978L330.348 261.376C329.678 261.517 329.022 261.627 328.381 261.707C327.739 261.786 327.051 261.837 326.317 261.859ZM334.422 261.314L333.779 239.898L340.234 239.704C342.918 239.624 344.993 240.18 346.458 241.374C347.933 242.568 348.705 244.321 348.774 246.633C348.851 249.177 348.191 251.154 346.794 252.565C345.407 253.965 343.371 254.705 340.687 254.786L337.866 254.871L338.057 261.205L334.422 261.314ZM337.766 251.523L340.586 251.438C342.034 251.394 343.128 250.979 343.87 250.192C344.621 249.405 344.975 248.307 344.933 246.9C344.894 245.613 344.478 244.639 343.683 243.978C342.898 243.318 341.782 243.009 340.334 243.053L337.514 243.137L337.766 251.523ZM352.52 260.771L351.84 238.148L355.566 238.036L355.965 251.353L356.463 251.338C357.71 251.301 358.729 251.054 359.52 250.598C360.311 250.131 360.924 249.403 361.357 248.414C361.79 247.425 362.088 246.113 362.25 244.478L366.096 244.362C365.728 248.217 364.645 250.997 362.844 252.702L367.601 260.318L363.122 260.452L359.666 254.457C358.948 254.65 358.166 254.759 357.321 254.785L356.07 254.822L356.245 260.659L352.52 260.771ZM371.317 267.421L371.067 264.123L376.19 263.818C377.676 263.723 378.745 263.274 379.395 262.469C380.045 261.675 380.353 260.518 380.317 259L380.258 257.039L379.942 257.049C379.842 258.088 379.448 258.895 378.761 259.469C378.074 260.033 377.147 260.333 375.981 260.368C373.95 260.429 372.365 259.772 371.227 258.397C370.099 257.022 369.495 255.003 369.415 252.338C369.333 249.634 369.819 247.546 370.872 246.075C371.925 244.605 373.467 243.839 375.497 243.778C377.921 243.705 379.335 244.729 379.741 246.85L379.997 246.843L380.167 243.939L383.59 243.837L384.028 258.405C384.113 261.251 383.513 263.367 382.226 264.754C380.949 266.151 378.87 266.943 375.987 267.13L371.317 267.421ZM380.099 251.731C380.005 248.604 378.822 247.074 376.55 247.143C375.413 247.177 374.557 247.63 373.979 248.503C373.401 249.376 373.137 250.616 373.185 252.225C373.282 255.442 374.501 257.016 376.844 256.946C378.04 256.91 378.894 256.502 379.404 255.721C379.923 254.941 380.16 253.757 380.112 252.168L380.099 251.731Z" fill="#D2A8FF"/>
    <path d="M408.255 247.323L407.512 237.684L411.765 237.556L411.603 247.222L408.255 247.323ZM414.951 247.121L414.208 237.483L418.461 237.355L418.299 247.021L414.951 247.121ZM430.47 258.732C428.077 258.803 426.202 258.709 424.846 258.448L425.178 254.936C426.36 255.061 427.374 255.151 428.221 255.206C429.068 255.262 429.783 255.28 430.366 255.263C431.834 255.219 432.891 255.066 433.537 254.805C434.194 254.544 434.514 254.152 434.498 253.629C434.488 253.287 434.385 253.034 434.188 252.869C433.992 252.693 433.686 252.557 433.27 252.458L428.632 251.315C427.345 251.001 426.385 250.547 425.753 249.952C425.121 249.347 424.788 248.481 424.755 247.355C424.702 245.616 425.363 244.318 426.736 243.462C428.119 242.605 430.294 242.132 433.26 242.043C433.973 242.022 434.688 242.025 435.403 242.054C436.119 242.083 436.865 242.136 437.642 242.213L437.352 245.603C436.474 245.549 435.704 245.517 435.039 245.507C434.385 245.496 433.796 245.499 433.273 245.515C431.604 245.565 430.401 245.717 429.664 245.97C428.927 246.224 428.566 246.607 428.582 247.12C428.592 247.462 428.71 247.71 428.936 247.864C429.162 248.018 429.508 248.149 429.974 248.255L433.866 249.18C435.376 249.517 436.498 250.022 437.233 250.694C437.978 251.366 438.368 252.3 438.404 253.497C438.455 255.196 437.834 256.473 436.541 257.326C435.259 258.18 433.235 258.648 430.47 258.732ZM441.944 265.331L441.695 262.063L444.34 261.681C445.513 261.505 446.477 261.124 447.235 260.538C447.992 259.961 448.62 259.072 449.117 257.87L447.186 257.928L440.945 242.114L444.866 241.996L449.719 254.802L450.036 254.793L453.312 241.743L457.233 241.625L453.131 256.33C452.585 258.259 451.943 259.818 451.204 261.007C450.475 262.206 449.591 263.108 448.553 263.713C447.514 264.328 446.264 264.738 444.801 264.943L441.944 265.331ZM466.666 257.645C464.273 257.716 462.398 257.622 461.042 257.361L461.374 253.849C462.555 253.974 463.569 254.064 464.416 254.119C465.263 254.175 465.978 254.193 466.561 254.176C468.029 254.132 469.086 253.979 469.733 253.718C470.389 253.457 470.709 253.065 470.694 252.542C470.683 252.2 470.58 251.947 470.384 251.782C470.188 251.606 469.882 251.47 469.466 251.371L464.828 250.228C463.54 249.914 462.581 249.46 461.949 248.865C461.317 248.26 460.984 247.395 460.95 246.268C460.898 244.529 461.558 243.231 462.931 242.375C464.315 241.518 466.489 241.045 469.455 240.956C470.169 240.935 470.884 240.938 471.599 240.967C472.314 240.996 473.061 241.049 473.838 241.126L473.547 244.516C472.67 244.462 471.899 244.43 471.235 244.42C470.58 244.409 469.992 244.412 469.469 244.428C467.8 244.478 466.597 244.63 465.86 244.883C465.123 245.137 464.762 245.52 464.777 246.033C464.787 246.375 464.906 246.623 465.132 246.777C465.358 246.931 465.704 247.062 466.17 247.168L470.062 248.093C471.572 248.43 472.694 248.935 473.428 249.607C474.173 250.279 474.563 251.213 474.599 252.41C474.65 254.109 474.03 255.386 472.737 256.24C471.454 257.093 469.431 257.562 466.666 257.645ZM489.197 256.968C486.563 257.047 484.647 256.571 483.449 255.54C482.26 254.509 481.631 252.823 481.561 250.48L481.375 244.281L477.468 244.399L477.367 241.02L481.273 240.903L481.128 236.077L484.838 235.966L484.983 240.792L492.147 240.577L492.248 243.955L485.085 244.17L485.262 250.067C485.299 251.314 485.638 252.209 486.278 252.753C486.928 253.287 487.967 253.533 489.395 253.49C489.867 253.476 490.374 253.436 490.916 253.369C491.457 253.292 492.073 253.198 492.764 253.087L493.228 256.485C492.558 256.625 491.902 256.736 491.261 256.815C490.619 256.895 489.931 256.946 489.197 256.968ZM505.41 256.481C502.655 256.564 500.507 255.914 498.966 254.531C497.435 253.138 496.629 251.099 496.548 248.415C496.47 245.801 497.042 243.751 498.266 242.265C499.499 240.778 501.272 240.001 503.585 239.931C505.817 239.864 507.561 240.476 508.817 241.767C510.084 243.057 510.755 244.964 510.831 247.488C510.852 248.212 510.843 248.901 510.802 249.556L500.396 249.869C501.066 252.063 502.823 253.117 505.669 253.032C506.372 253.01 507.06 252.955 507.732 252.864C508.413 252.763 509.103 252.637 509.803 252.485L510.299 255.912C509.309 256.122 508.402 256.265 507.579 256.34C506.767 256.415 506.043 256.462 505.41 256.481ZM500.15 247.189L507.253 246.976C507.216 245.75 506.886 244.824 506.264 244.198C505.641 243.563 504.792 243.261 503.716 243.293C502.67 243.325 501.84 243.677 501.227 244.349C500.613 245.022 500.254 245.969 500.15 247.189ZM526.017 255.56L525.675 244.174C525.642 243.068 525.269 242.525 524.555 242.547C523.7 242.573 523.292 243.234 523.331 244.531L523.665 255.631L520.754 255.718L520.403 244.03C520.376 243.125 520 242.684 519.276 242.705C518.412 242.731 517.999 243.393 518.038 244.69L518.371 255.79L514.676 255.901L514.196 239.914L517.529 239.814L517.8 241.799L518.117 241.789C518.242 240.256 519.068 239.466 520.597 239.42C521.964 239.379 522.811 240.119 523.139 241.638L523.471 241.628C523.52 240.943 523.77 240.382 524.22 239.946C524.67 239.509 525.292 239.279 526.086 239.255C527.172 239.223 527.97 239.496 528.481 240.074C529.001 240.652 529.281 241.605 529.321 242.932L529.697 255.45L526.017 255.56ZM540.293 255.433C539.59 255.455 538.984 255.226 538.477 254.748C537.969 254.26 537.705 253.67 537.684 252.976C537.662 252.262 537.89 251.651 538.368 251.144C538.846 250.636 539.437 250.372 540.141 250.351C540.845 250.33 541.45 250.558 541.958 251.036C542.465 251.514 542.73 252.11 542.751 252.824C542.772 253.517 542.544 254.123 542.066 254.641C541.588 255.148 540.997 255.412 540.293 255.433ZM539.948 243.926C539.244 243.947 538.638 243.719 538.131 243.241C537.623 242.753 537.359 242.157 537.338 241.454C537.317 240.75 537.545 240.144 538.023 239.637C538.501 239.129 539.091 238.865 539.795 238.844C540.499 238.823 541.105 239.051 541.612 239.529C542.12 240.007 542.384 240.598 542.405 241.301C542.426 242.005 542.198 242.616 541.72 243.133C541.243 243.641 540.652 243.905 539.948 243.926ZM551.596 254.792L550.952 233.376L557.468 233.181C559.69 233.114 561.418 233.53 562.653 234.429C563.897 235.317 564.545 236.616 564.596 238.325C564.636 239.673 564.231 240.757 563.38 241.577C562.529 242.388 561.296 242.873 559.681 243.032L559.691 243.394L560.038 243.383C562.019 243.324 563.561 243.735 564.664 244.618C565.778 245.5 566.359 246.781 566.41 248.46C566.466 250.33 565.931 251.795 564.806 252.856C563.691 253.916 562.072 254.478 559.951 254.541L551.596 254.792ZM555.13 251.335L558.975 251.219C560.162 251.184 561.074 250.885 561.711 250.322C562.348 249.749 562.651 248.966 562.621 247.97C562.592 246.975 562.221 246.211 561.511 245.679C560.811 245.146 559.832 244.899 558.575 244.937L554.941 245.046L555.13 251.335ZM554.84 241.698L557.781 241.609C559.872 241.547 560.892 240.641 560.839 238.891C560.79 237.252 559.649 236.466 557.417 236.533L554.688 236.615L554.84 241.698ZM576.489 254.346C574.217 254.415 572.436 253.744 571.145 252.333C569.855 250.923 569.17 248.901 569.091 246.266C569.012 243.622 569.574 241.562 570.778 240.087C571.981 238.602 573.719 237.825 575.991 237.757C578.263 237.689 580.044 238.36 581.335 239.77C582.624 241.17 583.309 243.193 583.389 245.837C583.468 248.471 582.906 250.531 581.702 252.016C580.499 253.501 578.761 254.278 576.489 254.346ZM576.385 250.878C577.441 250.846 578.242 250.404 578.79 249.553C579.348 248.691 579.604 247.49 579.558 245.952C579.511 244.404 579.184 243.221 578.576 242.404C577.978 241.587 577.151 241.194 576.095 241.226C575.039 241.257 574.232 241.699 573.674 242.551C573.126 243.403 572.876 244.603 572.922 246.151C572.968 247.69 573.291 248.872 573.889 249.7C574.497 250.517 575.329 250.909 576.385 250.878ZM594.587 253.803C592.315 253.871 590.533 253.2 589.243 251.79C587.953 250.379 587.268 248.357 587.189 245.723C587.11 243.079 587.672 241.019 588.875 239.544C590.079 238.058 591.816 237.282 594.089 237.213C596.361 237.145 598.142 237.816 599.432 239.227C600.722 240.627 601.407 242.649 601.486 245.293C601.565 247.928 601.003 249.987 599.8 251.473C598.597 252.958 596.859 253.735 594.587 253.803ZM594.483 250.334C595.538 250.303 596.34 249.861 596.888 249.009C597.446 248.147 597.702 246.947 597.656 245.409C597.609 243.86 597.282 242.677 596.674 241.86C596.075 241.043 595.249 240.65 594.193 240.682C593.137 240.714 592.33 241.156 591.772 242.008C591.224 242.859 590.973 244.059 591.02 245.608C591.066 247.146 591.388 248.329 591.987 249.156C592.595 249.973 593.427 250.366 594.483 250.334ZM615.882 253.163C613.248 253.243 611.331 252.767 610.133 251.736C608.945 250.705 608.316 249.018 608.245 246.675L608.059 240.477L604.153 240.594L604.051 237.216L607.958 237.099L607.813 232.273L611.523 232.161L611.668 236.987L618.831 236.772L618.933 240.15L611.769 240.366L611.946 246.262C611.984 247.509 612.322 248.405 612.963 248.949C613.613 249.483 614.652 249.729 616.079 249.686C616.552 249.671 617.059 249.631 617.6 249.565C618.141 249.488 618.758 249.394 619.449 249.283L619.913 252.68C619.243 252.821 618.587 252.931 617.945 253.011C617.304 253.091 616.616 253.141 615.882 253.163ZM623.987 252.618L623.344 231.202L626.978 231.093L627.521 249.161L638.364 248.835L638.465 252.183L623.987 252.618ZM648.88 252.173C646.608 252.241 644.827 251.57 643.536 250.159C642.246 248.749 641.562 246.727 641.482 244.092C641.403 241.448 641.965 239.388 643.169 237.913C644.372 236.428 646.11 235.651 648.382 235.583C650.654 235.515 652.436 236.186 653.726 237.596C655.016 238.996 655.7 241.019 655.78 243.663C655.859 246.297 655.297 248.357 654.094 249.842C652.89 251.328 651.152 252.104 648.88 252.173ZM648.776 248.704C649.832 248.672 650.634 248.23 651.182 247.379C651.739 246.517 651.995 245.316 651.949 243.778C651.903 242.23 651.575 241.047 650.967 240.23C650.369 239.413 649.542 239.02 648.486 239.052C647.43 239.083 646.624 239.525 646.065 240.377C645.517 241.229 645.267 242.429 645.313 243.977C645.359 245.516 645.682 246.698 646.28 247.526C646.888 248.343 647.72 248.735 648.776 248.704ZM670.05 251.386L669.733 247.863L669.386 247.873C669.292 249.104 668.817 250.039 667.961 250.679C667.115 251.318 665.978 251.659 664.55 251.702C662.861 251.753 661.536 251.385 660.577 250.599C659.627 249.802 659.13 248.644 659.084 247.126C659.031 245.377 659.614 244.016 660.833 243.043C662.052 242.071 663.802 241.55 666.085 241.482C667.301 241.445 668.36 241.509 669.26 241.673L669.251 241.356C669.223 240.421 668.835 239.749 668.088 239.338C667.341 238.918 666.238 238.71 664.779 238.713L660.794 238.727L660.995 235.355L664.374 235.299C667.171 235.255 669.264 235.766 670.655 236.831C672.045 237.886 672.772 239.47 672.835 241.581L673.022 247.795L675.445 248.054L675.535 251.07L670.05 251.386ZM669.35 244.674C668.804 244.59 668.285 244.55 667.792 244.555C667.309 244.55 666.801 244.555 666.268 244.571C663.895 244.642 662.73 245.376 662.772 246.774C662.809 248.031 663.643 248.635 665.271 248.586C666.207 248.558 666.976 248.369 667.579 248.018C668.192 247.658 668.647 247.216 668.943 246.694C669.239 246.162 669.379 245.62 669.362 245.067L669.35 244.674ZM683.643 251.129C681.612 251.19 680.028 250.533 678.889 249.158C677.761 247.783 677.157 245.763 677.077 243.099C676.996 240.394 677.482 238.307 678.534 236.836C679.587 235.365 681.129 234.599 683.16 234.538C685.503 234.468 686.867 235.494 687.253 237.616L687.615 237.605L687.328 228.073L691.053 227.961L691.733 250.584L688.495 250.832L687.936 247.799L687.604 247.809C687.504 248.849 687.111 249.656 686.424 250.23C685.736 250.794 684.809 251.094 683.643 251.129ZM687.774 242.929L687.761 242.491C687.667 239.364 686.484 237.835 684.212 237.903C683.076 237.937 682.219 238.391 681.641 239.264C681.064 240.136 680.799 241.377 680.847 242.986C680.944 246.203 682.164 247.777 684.506 247.706C685.703 247.67 686.556 247.262 687.066 246.482C687.586 245.702 687.822 244.517 687.774 242.929ZM704.486 250.503C701.731 250.585 699.583 249.935 698.042 248.553C696.511 247.16 695.705 245.121 695.624 242.436C695.546 239.822 696.118 237.772 697.341 236.286C698.575 234.8 700.348 234.022 702.66 233.953C704.892 233.886 706.637 234.498 707.893 235.788C709.16 237.079 709.831 238.986 709.906 241.509C709.928 242.233 709.919 242.923 709.878 243.578L699.472 243.891C700.141 246.084 701.899 247.139 704.744 247.053C705.448 247.032 706.136 246.976 706.807 246.886C707.489 246.785 708.179 246.658 708.879 246.506L709.375 249.933C708.385 250.144 707.478 250.287 706.655 250.362C705.842 250.437 705.119 250.484 704.486 250.503ZM699.225 241.211L706.329 240.998C706.292 239.771 705.962 238.845 705.34 238.22C704.717 237.584 703.867 237.283 702.791 237.315C701.746 237.347 700.916 237.698 700.302 238.371C699.689 239.044 699.33 239.99 699.225 241.211ZM720.226 242.845L720.336 246.494L724.152 246.38L724.248 249.607L713.269 249.937L713.172 246.71L716.626 246.606L716.34 237.074L713.489 237.16L713.392 233.932L719.35 233.754L719.961 237.539L720.459 237.524C720.538 234.785 721.899 233.375 724.544 233.296C727.681 233.201 729.312 235.256 729.438 239.458L725.728 239.57C725.697 238.534 725.499 237.796 725.133 237.354C724.778 236.911 724.218 236.702 723.454 236.725C722.318 236.759 721.479 237.307 720.937 238.37C720.406 239.433 720.169 240.924 720.226 242.845ZM734.015 237.54L733.273 227.901L737.526 227.773L737.363 237.439L734.015 237.54ZM740.711 237.339L739.969 227.7L744.222 227.572L744.059 237.238L740.711 237.339Z" fill="#A5D6FF"/>
    </svg>
    